# xmcd
#
# Track frame offsets: 
#        150
#        10613
#        20845
#        31254
#        41142
#        49712
#        63675
#        78682
#        88476
#        98061
#        109404
#        122168
#        133093
#        146606
#        158805
#        168732
#        180309
#        192479
#        202923
#        215131
#        228211
#        243045
#        256767
#
# Disc length: 3601 seconds
#
# Revision: 2
# Processed by: cddbd v1.5.2PL0 Copyright (c) Steve Scherf et al.
# Submitted via: ExactAudioCopy v1.0b1
#
DISCID=490e0f17
DTITLE=Roy Orbison - Roy Orbison Sings Don Gibson
DYEAR=2004
DGENRE=Blues
TTITLE0=(I'd Be) A Legend In My Time (stereo)
TTITLE1=(Yes) I'm Hurting (stereo)
TTITLE2=The Same Street (stereo)
TTITLE3=Far Far Away (stereo)
TTITLE4=Big Hearted Me (stereo)
TTITLE5=Sweet Dreams (stereo)
TTITLE6=Oh, Such A Stranger (stereo)
TTITLE7=Blue, Blue Day (stereo)
TTITLE8=What About Me (stereo)
TTITLE9=Give Myself A Party (stereo)
TTITLE10=Too Soon To Know (stereo)
TTITLE11=Lonesome Number One (stereo)
TTITLE12=Kaw-Liga (stereo)
TTITLE13=Hey, Good Lookin' (stereo)
TTITLE14=Jambalaya (stereo)
TTITLE15=(Last Night) I Heard You Crying In Your Sleep (stereo)
TTITLE16=You Win Again (stereo)
TTITLE17=Your Cheatin' Heart (stereo)
TTITLE18=Cold, Cold Heart (stereo)
TTITLE19=A Mansion On The Hill (stereo)
TTITLE20=I Can't Help It (If I'm Still In Love With You) (stereo)
TTITLE21=There'll Be No Teardrops Tonight (stereo)
TTITLE22=I'm So Lonesome I Could Cry (stereo)
EXTD=
EXTT0=
EXTT1=
EXTT2=
EXTT3=
EXTT4=
EXTT5=
EXTT6=
EXTT7=
EXTT8=
EXTT9=
EXTT10=
EXTT11=
EXTT12=
EXTT13=
EXTT14=
EXTT15=
EXTT16=
EXTT17=
EXTT18=
EXTT19=
EXTT20=
EXTT21=
EXTT22=
PLAYORDER=
